<svg xmlns="http://www.w3.org/2000/svg" viewBox="0 0 100 100">
  <rect fill="#fef3c7" width="100" height="100" rx="18"/>
  <path d="M28 32h-8a4 4 0 0 0-4 4v12a4 4 0 0 0 4 4h8a4 4 0 0 0 4-4v-12a4 4 0 0 0-4-4z" fill="#f59e0b"/>
  <path d="M64 32h-8a4 4 0 0 0-4 4v12a4 4 0 0 0 4 4h8a4 4 0 0 0 4-4v-12a4 4 0 0 0-4-4z" fill="#f59e0b"/>
  <circle cx="24" cy="68" r="4" fill="#d97706"/>
  <circle cx="76" cy="68" r="4" fill="#d97706"/>
  <circle cx="36" cy="68" r="4" fill="#d97706"/>
  <circle cx="64" cy="68" r="4" fill="#d97706"/>
  <circle cx="50" cy="68" r="4" fill="#d97706"/>
</svg>
